# This file uses centimeters as units for non-parametric coordinates.

mtllib SkyBox.mtl
v -85.561123 -85.561123 79.329129
v -79.329129 -88.142501 79.329129
v -79.329129 -85.561123 85.561123
v -79.329129 -79.329129 88.142501
v -85.561123 -79.329129 85.561123
v -88.142501 -79.329129 79.329129
v 85.561123 -85.561123 79.329129
v 88.142501 -79.329129 79.329129
v 85.561123 -79.329129 85.561123
v 79.329129 -79.329129 88.142501
v 79.329129 -85.561123 85.561123
v 79.329129 -88.142501 79.329129
v -85.561123 85.561123 79.329129
v -88.142501 79.329129 79.329129
v -85.561123 79.329129 85.561123
v -79.329129 79.329129 88.142501
v -79.329129 85.561123 85.561123
v -79.329129 88.142501 79.329129
v 85.561123 85.561123 79.329129
v 79.329129 88.142501 79.329129
v 79.329129 85.561123 85.561123
v 79.329129 79.329129 88.142501
v 85.561123 79.329129 85.561123
v 88.142501 79.329129 79.329129
v -85.561123 79.329129 -85.561123
v -88.142501 79.329129 -79.329129
v -85.561123 85.561123 -79.329129
v -79.329129 88.142501 -79.329129
v -79.329129 85.561123 -85.561123
v -79.329129 79.329129 -88.142501
v 85.561123 79.329129 -85.561123
v 79.329129 79.329129 -88.142501
v 79.329129 85.561123 -85.561123
v 79.329129 88.142501 -79.329129
v 85.561123 85.561123 -79.329129
v 88.142501 79.329129 -79.329129
v -85.561123 -85.561123 -79.329129
v -88.142501 -79.329129 -79.329129
v -85.561123 -79.329129 -85.561123
v -79.329129 -79.329129 -88.142501
v -79.329129 -85.561123 -85.561123
v -79.329129 -88.142501 -79.329129
v 85.561123 -85.561123 -79.329129
v 79.329129 -88.142501 -79.329129
v 79.329129 -85.561123 -85.561123
v 79.329129 -79.329129 -88.142501
v 85.561123 -79.329129 -85.561123
v 88.142501 -79.329129 -79.329129
v -84.415755 -84.415755 84.415755
v 84.415755 -84.415755 84.415755
v -84.415755 84.415755 84.415755
v 84.415755 84.415755 84.415755
v -84.415755 84.415755 -84.415755
v 84.415755 84.415755 -84.415755
v -84.415755 -84.415755 -84.415755
v 84.415755 -84.415755 -84.415755
vt 0.056068 0.943933
vt 0.006747 0.962156
vt 0.006747 0.037843
vt 0.056068 0.056067
vt 0.962156 0.006746
vt 0.943933 0.056067
vt 0.056068 0.056067
vt 0.037844 0.006746
vt 0.056067 0.056067
vt 0.037844 0.006746
vt 0.962155 0.006746
vt 0.943931 0.056067
vt 0.037845 0.993254
vt 0.943932 0.943933
vt 0.962156 0.993254
vt 0.993254 0.055310
vt 0.006746 0.944690
vt 0.943933 0.943933
vt 0.056067 0.943933
vt 0.056068 0.056067
vt 0.037844 0.006746
vt 0.962156 0.006746
vt 0.943932 0.056067
vt 0.993253 0.962156
vt 0.943932 0.056067
vt 0.993253 0.037843
vt 0.993254 0.055310
vt 0.006746 0.944690
vt 0.943931 0.943933
vt 0.056068 0.943933
vt 0.962156 0.993254
vt 0.037844 0.993254
vt 0.056068 0.943933
vt 0.007090 0.038165
vt 0.056377 0.056377
vt 0.056377 0.943623
vt 0.007090 0.961834
vt 0.055620 0.007090
vt 0.944690 0.993254
vt 0.943623 0.056377
vt 0.992910 0.038165
vt 0.992910 0.961834
vt 0.943623 0.943623
vt 0.037844 0.993254
vt 0.943932 0.943933
vt 0.962156 0.993254
vt 0.006746 0.962155
vt 0.006746 0.037845
vt 0.006746 0.037843
vt 0.056067 0.056067
vt 0.056067 0.943933
vt 0.006746 0.962156
vt 0.055310 0.006746
vt 0.944380 0.992911
vt 0.943932 0.056067
vt 0.993254 0.037843
vt 0.993254 0.962156
vt 0.943932 0.943933
vt 0.993254 0.962155
vt 0.993254 0.037845
vt 0.055310 0.006746
vt 0.944690 0.993254
vt 0.993254 0.006746
vt 0.006747 0.993254
vt 0.993253 0.993254
vt 0.006746 0.006746
vt 0.993254 0.993254
vt 0.992910 0.007090
vt 0.006746 0.006746
vt 0.006746 0.993254
vt 0.993254 0.993254
vt 0.993254 0.006746
vt 0.006747 0.006746
vt 0.006746 0.006746
vt 0.993254 0.006746
vt 0.993253 0.006746
vt 0.944691 0.006746
vt 0.993254 0.993254
vt 0.006746 0.993254
vt 0.055310 0.993254
vt 0.944690 0.006746
vt 0.992910 0.992911
vt 0.007090 0.992911
vt 0.055620 0.992911
vt 0.944380 0.007090
vt 0.006746 0.993254
vt 0.993254 0.993254
vt 0.993254 0.944690
vt 0.993254 0.944690
vt 0.007090 0.007090
vt 0.006746 0.993254
vt 0.055309 0.993254
vt 0.006746 0.055310
vt 0.993254 0.006746
vt 0.006746 0.006746
vt 0.006746 0.055310
vn 0.382684 0.923879 0.000000
vn 0.382684 0.923879 0.000000
vn 0.382684 0.923879 0.000000
vn 0.382684 0.923879 0.000000
vn 0.923879 0.382684 0.000000
vn 0.923879 0.382684 0.000000
vn 0.923879 0.382684 0.000000
vn 0.923879 0.382684 0.000000
vn -0.000000 0.382684 -0.923879
vn -0.000000 0.382684 -0.923879
vn -0.000000 0.382684 -0.923879
vn -0.000000 0.382684 -0.923879
vn -0.000000 0.923879 -0.382684
vn -0.000000 0.923879 -0.382684
vn -0.000000 0.923879 -0.382684
vn -0.000000 0.923879 -0.382684
vn 0.923879 0.000000 -0.382684
vn 0.923879 0.000000 -0.382684
vn 0.923879 0.000000 -0.382684
vn 0.923879 0.000000 -0.382684
vn 0.382684 0.000000 -0.923879
vn 0.382684 0.000000 -0.923879
vn 0.382684 0.000000 -0.923879
vn 0.382684 0.000000 -0.923879
vn -0.923879 0.382684 -0.000000
vn -0.923879 0.382684 -0.000000
vn -0.923879 0.382684 -0.000000
vn -0.923879 0.382684 -0.000000
vn -0.382684 0.923879 -0.000000
vn -0.382684 0.923879 -0.000000
vn -0.382684 0.923879 -0.000000
vn -0.382684 0.923879 -0.000000
vn -0.382684 0.000000 -0.923879
vn -0.382684 0.000000 -0.923879
vn -0.382684 0.000000 -0.923879
vn -0.382684 0.000000 -0.923879
vn -0.923879 0.000000 -0.382684
vn -0.923879 0.000000 -0.382684
vn -0.923879 0.000000 -0.382684
vn -0.923879 0.000000 -0.382684
vn 0.923879 -0.382684 0.000000
vn 0.923879 -0.382684 0.000000
vn 0.923879 -0.382684 0.000000
vn 0.923879 -0.382684 0.000000
vn 0.382684 -0.923879 0.000000
vn 0.382684 -0.923879 0.000000
vn 0.382684 -0.923879 0.000000
vn 0.382684 -0.923879 0.000000
vn 0.000000 -0.923879 -0.382684
vn 0.000000 -0.923879 -0.382684
vn 0.000000 -0.923879 -0.382684
vn 0.000000 -0.923879 -0.382684
vn 0.000000 -0.382684 -0.923879
vn 0.000000 -0.382684 -0.923879
vn 0.000000 -0.382684 -0.923879
vn 0.000000 -0.382684 -0.923879
vn -0.382684 -0.923879 0.000000
vn -0.382684 -0.923879 0.000000
vn -0.382684 -0.923879 0.000000
vn -0.382684 -0.923879 0.000000
vn -0.923879 -0.382684 0.000000
vn -0.923879 -0.382684 0.000000
vn -0.923879 -0.382684 0.000000
vn -0.923879 -0.382684 0.000000
vn 0.923879 -0.000000 0.382684
vn 0.923879 -0.000000 0.382684
vn 0.923879 -0.000000 0.382684
vn 0.923879 -0.000000 0.382684
vn 0.382684 -0.000000 0.923879
vn 0.382684 -0.000000 0.923879
vn 0.382684 -0.000000 0.923879
vn 0.382684 -0.000000 0.923879
vn 0.000000 -0.382684 0.923879
vn 0.000000 -0.382684 0.923879
vn 0.000000 -0.382684 0.923879
vn 0.000000 -0.382684 0.923879
vn 0.000000 -0.923879 0.382684
vn 0.000000 -0.923879 0.382684
vn 0.000000 -0.923879 0.382684
vn 0.000000 -0.923879 0.382684
vn -0.382684 0.000000 0.923879
vn -0.382684 0.000000 0.923879
vn -0.382684 0.000000 0.923879
vn -0.382684 0.000000 0.923879
vn -0.923879 0.000000 0.382684
vn -0.923879 0.000000 0.382684
vn -0.923879 0.000000 0.382684
vn -0.923879 0.000000 0.382684
vn 0.000000 0.923879 0.382684
vn 0.000000 0.923879 0.382684
vn 0.000000 0.923879 0.382684
vn 0.000000 0.923879 0.382684
vn 0.000000 0.382684 0.923879
vn 0.000000 0.382684 0.923879
vn 0.000000 0.382684 0.923879
vn 0.000000 0.382684 0.923879
vn 0.000000 0.000000 -1.000000
vn 0.000000 0.000000 -1.000000
vn 0.000000 0.000000 -1.000000
vn 0.000000 0.000000 -1.000000
vn 0.000000 -1.000000 0.000000
vn 0.000000 -1.000000 0.000000
vn 0.000000 -1.000000 0.000000
vn 0.000000 -1.000000 0.000000
vn 0.000000 0.000000 1.000000
vn 0.000000 0.000000 1.000000
vn 0.000000 0.000000 1.000000
vn 0.000000 0.000000 1.000000
vn -0.000000 1.000000 -0.000000
vn -0.000000 1.000000 -0.000000
vn -0.000000 1.000000 -0.000000
vn -0.000000 1.000000 -0.000000
vn -1.000000 0.000000 0.000000
vn -1.000000 0.000000 0.000000
vn -1.000000 0.000000 0.000000
vn -1.000000 0.000000 0.000000
vn 1.000000 0.000000 0.000000
vn 1.000000 0.000000 0.000000
vn 1.000000 0.000000 0.000000
vn 1.000000 0.000000 0.000000
vn 0.887919 0.325269 -0.325269
vn 0.887919 0.325269 -0.325269
vn 0.887919 0.325269 -0.325269
vn 0.887919 0.325269 -0.325269
vn 0.325269 0.887919 -0.325269
vn 0.325269 0.887919 -0.325269
vn 0.325269 0.887919 -0.325269
vn 0.325269 0.887919 -0.325269
vn 0.325269 0.325269 -0.887919
vn 0.325269 0.325269 -0.887919
vn 0.325269 0.325269 -0.887919
vn 0.325269 0.325269 -0.887919
vn -0.325269 0.887919 -0.325269
vn -0.325269 0.887919 -0.325269
vn -0.325269 0.887919 -0.325269
vn -0.325269 0.887919 -0.325269
vn -0.887919 0.325269 -0.325269
vn -0.887919 0.325269 -0.325269
vn -0.887919 0.325269 -0.325269
vn -0.887919 0.325269 -0.325269
vn -0.325269 0.325269 -0.887919
vn -0.325269 0.325269 -0.887919
vn -0.325269 0.325269 -0.887919
vn -0.325269 0.325269 -0.887919
vn 0.325269 -0.887919 -0.325269
vn 0.325269 -0.887919 -0.325269
vn 0.325269 -0.887919 -0.325269
vn 0.325269 -0.887919 -0.325269
vn 0.887919 -0.325269 -0.325269
vn 0.887919 -0.325269 -0.325269
vn 0.887919 -0.325269 -0.325269
vn 0.887919 -0.325269 -0.325269
vn 0.325269 -0.325269 -0.887919
vn 0.325269 -0.325269 -0.887919
vn 0.325269 -0.325269 -0.887919
vn 0.325269 -0.325269 -0.887919
vn -0.887919 -0.325269 -0.325269
vn -0.887919 -0.325269 -0.325269
vn -0.887919 -0.325269 -0.325269
vn -0.887919 -0.325269 -0.325269
vn -0.325269 -0.887919 -0.325269
vn -0.325269 -0.887919 -0.325269
vn -0.325269 -0.887919 -0.325269
vn -0.325269 -0.887919 -0.325269
vn -0.325269 -0.325269 -0.887919
vn -0.325269 -0.325269 -0.887919
vn -0.325269 -0.325269 -0.887919
vn -0.325269 -0.325269 -0.887919
vn 0.325269 -0.325269 0.887919
vn 0.325269 -0.325269 0.887919
vn 0.325269 -0.325269 0.887919
vn 0.325269 -0.325269 0.887919
vn 0.887919 -0.325269 0.325269
vn 0.887919 -0.325269 0.325269
vn 0.887919 -0.325269 0.325269
vn 0.887919 -0.325269 0.325269
vn 0.325269 -0.887919 0.325269
vn 0.325269 -0.887919 0.325269
vn 0.325269 -0.887919 0.325269
vn 0.325269 -0.887919 0.325269
vn -0.887919 -0.325269 0.325269
vn -0.887919 -0.325269 0.325269
vn -0.887919 -0.325269 0.325269
vn -0.887919 -0.325269 0.325269
vn -0.325269 -0.325269 0.887919
vn -0.325269 -0.325269 0.887919
vn -0.325269 -0.325269 0.887919
vn -0.325269 -0.325269 0.887919
vn -0.325269 -0.887919 0.325269
vn -0.325269 -0.887919 0.325269
vn -0.325269 -0.887919 0.325269
vn -0.325269 -0.887919 0.325269
vn 0.325269 0.887919 0.325269
vn 0.325269 0.887919 0.325269
vn 0.325269 0.887919 0.325269
vn 0.325269 0.887919 0.325269
vn 0.887919 0.325269 0.325269
vn 0.887919 0.325269 0.325269
vn 0.887919 0.325269 0.325269
vn 0.887919 0.325269 0.325269
vn 0.325269 0.325269 0.887919
vn 0.325269 0.325269 0.887919
vn 0.325269 0.325269 0.887919
vn 0.325269 0.325269 0.887919
vn -0.887919 0.325269 0.325269
vn -0.887919 0.325269 0.325269
vn -0.887919 0.325269 0.325269
vn -0.887919 0.325269 0.325269
vn -0.325269 0.887919 0.325269
vn -0.325269 0.887919 0.325269
vn -0.325269 0.887919 0.325269
vn -0.325269 0.887919 0.325269
vn -0.325269 0.325269 0.887919
vn -0.325269 0.325269 0.887919
vn -0.325269 0.325269 0.887919
vn -0.325269 0.325269 0.887919
s off
g BigDie1
usemtl initialShadingGroup
f 2/1/1 42/4/2 37/3/3 1/2/4
f 1/5/5 37/8/6 38/7/7 6/6/8
f 4/9/9 10/12/10 11/11/11 3/10/12
f 3/13/13 11/15/14 12/14/15 2/1/16
f 6/6/17 14/18/18 15/89/19 5/16/20
f 5/96/21 15/17/22 16/19/23 4/9/24
f 8/20/25 48/23/26 43/22/27 7/21/28
f 7/24/29 43/26/30 44/25/31 12/14/32
f 10/12/33 22/29/34 23/88/35 9/27/36
f 9/93/37 23/28/38 24/30/39 8/20/40
f 14/18/41 26/33/42 27/32/43 13/31/44
f 13/34/45 27/37/46 28/36/47 18/35/48
f 18/35/49 20/40/50 21/85/51 17/38/52
f 17/92/53 21/39/54 22/29/55 16/19/56
f 20/40/57 34/43/58 35/42/59 19/41/60
f 19/44/61 35/46/62 36/45/63 24/30/64
f 26/33/65 38/7/66 39/48/67 25/47/68
f 25/49/69 39/52/70 40/51/71 30/50/72
f 30/50/73 32/55/74 33/81/75 29/53/76
f 29/84/77 33/54/78 34/43/79 28/36/80
f 32/55/81 46/58/82 47/57/83 31/56/84
f 31/59/85 47/60/86 48/23/87 36/45/88
f 42/4/89 44/25/90 45/77/91 41/61/92
f 41/80/93 45/62/94 46/58/95 40/51/96
f 4/9/97 16/19/98 22/29/99 10/12/100
f 18/35/101 28/36/102 34/43/103 20/40/104
f 30/50/105 40/51/106 46/58/107 32/55/108
f 42/4/109 2/1/110 12/14/111 44/25/112
f 8/20/113 24/30/114 36/45/115 48/23/116
f 38/7/117 26/33/118 14/18/119 6/6/120
f 5/16/121 49/63/122 1/5/123 6/6/124
f 1/2/125 49/64/126 3/13/127 2/1/128
f 3/10/129 49/95/130 5/96/131 4/9/132
f 11/15/133 50/65/134 7/24/135 12/14/136
f 7/21/137 50/66/138 9/93/139 8/20/140
f 9/27/141 50/94/142 11/11/143 10/12/144
f 17/38/145 51/90/146 13/34/147 18/35/148
f 13/31/149 51/67/150 15/89/151 14/18/152
f 15/17/153 51/91/154 17/92/155 16/19/156
f 23/28/157 52/86/158 19/44/159 24/30/160
f 19/41/161 52/68/162 21/85/163 20/40/164
f 21/39/165 52/87/166 23/88/167 22/29/168
f 29/53/169 53/69/170 25/49/171 30/50/172
f 25/47/173 53/70/174 27/32/175 26/33/176
f 27/37/177 53/83/178 29/84/179 28/36/180
f 35/46/181 54/71/182 31/59/183 36/45/184
f 31/56/185 54/72/186 33/81/187 32/55/188
f 33/54/189 54/82/190 35/42/191 34/43/192
f 41/61/193 55/73/194 37/3/195 42/4/196
f 37/8/197 55/74/198 39/48/199 38/7/200
f 39/52/201 55/79/202 41/80/203 40/51/204
f 47/60/205 56/75/206 43/22/207 48/23/208
f 43/26/209 56/76/210 45/77/211 44/25/212
f 45/62/213 56/78/214 47/57/215 46/58/216
