# This file uses centimeters as units for non-parametric coordinates.

mtllib RandomDice.mtl
v -3.044781 -3.044781 2.823009
v -2.823009 -3.136642 2.823009
v -2.823009 -3.044781 3.044781
v -2.823009 -2.823009 3.136642
v -3.044781 -2.823009 3.044781
v -3.136642 -2.823009 2.823009
v 3.044781 -3.044781 2.823009
v 3.136642 -2.823009 2.823009
v 3.044781 -2.823009 3.044781
v 2.823009 -2.823009 3.136642
v 2.823009 -3.044781 3.044781
v 2.823009 -3.136642 2.823009
v -3.044781 3.044781 2.823009
v -3.136642 2.823009 2.823009
v -3.044781 2.823009 3.044781
v -2.823009 2.823009 3.136642
v -2.823009 3.044781 3.044781
v -2.823009 3.136642 2.823009
v 3.044781 3.044781 2.823009
v 2.823009 3.136642 2.823009
v 2.823009 3.044781 3.044781
v 2.823009 2.823009 3.136642
v 3.044781 2.823009 3.044781
v 3.136642 2.823009 2.823009
v -3.044781 2.823009 -3.044781
v -3.136642 2.823009 -2.823009
v -3.044781 3.044781 -2.823009
v -2.823009 3.136642 -2.823009
v -2.823009 3.044781 -3.044781
v -2.823009 2.823009 -3.136642
v 3.044781 2.823009 -3.044781
v 2.823009 2.823009 -3.136642
v 2.823009 3.044781 -3.044781
v 2.823009 3.136642 -2.823009
v 3.044781 3.044781 -2.823009
v 3.136642 2.823009 -2.823009
v -3.044781 -3.044781 -2.823009
v -3.136642 -2.823009 -2.823009
v -3.044781 -2.823009 -3.044781
v -2.823009 -2.823009 -3.136642
v -2.823009 -3.044781 -3.044781
v -2.823009 -3.136642 -2.823009
v 3.044781 -3.044781 -2.823009
v 2.823009 -3.136642 -2.823009
v 2.823009 -3.044781 -3.044781
v 2.823009 -2.823009 -3.136642
v 3.044781 -2.823009 -3.044781
v 3.136642 -2.823009 -2.823009
v -3.004022 -3.004022 3.004022
v 3.004022 -3.004022 3.004022
v -3.004022 3.004022 3.004022
v 3.004022 3.004022 3.004022
v -3.004022 3.004022 -3.004022
v 3.004022 3.004022 -3.004022
v -3.004022 -3.004022 -3.004022
v 3.004022 -3.004022 -3.004022
vt 0.137499 0.237501
vt 0.125000 0.242119
vt 0.125000 0.007881
vt 0.137499 0.012499
vt 0.367119 -0.000000
vt 0.362501 0.012499
vt 0.137499 0.012499
vt 0.132881 -0.000000
vt 0.137499 0.012499
vt 0.132881 0.000000
vt 0.367119 0.000000
vt 0.362501 0.012499
vt 0.132881 0.250000
vt 0.362501 0.237501
vt 0.367119 0.250000
vt 0.375000 0.012307
vt 0.125000 0.237693
vt 0.362501 0.237501
vt 0.137499 0.237501
vt 0.137499 0.012499
vt 0.132881 0.000000
vt 0.367119 0.000000
vt 0.362501 0.012499
vt 0.375000 0.242119
vt 0.362501 0.012499
vt 0.375000 0.007881
vt 0.375000 0.012307
vt 0.125000 0.237693
vt 0.362501 0.237501
vt 0.137499 0.237501
vt 0.367119 0.250000
vt 0.132881 0.250000
vt 0.137499 0.237501
vt 0.125000 0.007881
vt 0.137499 0.012499
vt 0.137499 0.237501
vt 0.125000 0.242119
vt 0.137307 0.000000
vt 0.362693 0.250000
vt 0.362501 0.012499
vt 0.375000 0.007881
vt 0.375000 0.242119
vt 0.362501 0.237501
vt 0.132881 0.250000
vt 0.362501 0.237501
vt 0.367119 0.250000
vt 0.125000 0.242119
vt 0.125000 0.007881
vt 0.125000 0.007881
vt 0.137499 0.012499
vt 0.137499 0.237501
vt 0.125000 0.242119
vt 0.137307 0.000000
vt 0.362693 0.250000
vt 0.362501 0.012499
vt 0.375000 0.007881
vt 0.375000 0.242119
vt 0.362501 0.237501
vt 0.375000 0.242119
vt 0.375000 0.007881
vt 0.137307 0.000000
vt 0.362693 0.250000
vt 0.375000 0.000000
vt 0.125000 0.250000
vt 0.375000 0.250000
vt 0.125000 0.000000
vt 0.375000 0.250000
vt 0.375000 0.000000
vt 0.125000 0.000000
vt 0.125000 0.250000
vt 0.375000 0.250000
vt 0.375000 0.000000
vt 0.125000 0.000000
vt 0.125000 0.000000
vt 0.375000 0.000000
vt 0.375000 0.000000
vt 0.362693 0.000000
vt 0.375000 0.250000
vt 0.125000 0.250000
vt 0.137307 0.250000
vt 0.362693 0.000000
vt 0.375000 0.250000
vt 0.125000 0.250000
vt 0.137307 0.250000
vt 0.362693 0.000000
vt 0.125000 0.250000
vt 0.375000 0.250000
vt 0.375000 0.237693
vt 0.375000 0.237693
vt 0.125000 0.000000
vt 0.125000 0.250000
vt 0.137307 0.250000
vt 0.125000 0.012307
vt 0.375000 0.000000
vt 0.125000 0.000000
vt 0.125000 0.012307
vn -0.382684 -0.923879 0.000000
vn -0.382684 -0.923879 0.000000
vn -0.382684 -0.923879 0.000000
vn -0.382684 -0.923879 0.000000
vn -0.923879 -0.382684 0.000000
vn -0.923879 -0.382684 0.000000
vn -0.923879 -0.382684 0.000000
vn -0.923879 -0.382684 0.000000
vn 0.000000 -0.382684 0.923879
vn 0.000000 -0.382684 0.923879
vn 0.000000 -0.382684 0.923879
vn 0.000000 -0.382684 0.923879
vn 0.000000 -0.923879 0.382684
vn 0.000000 -0.923879 0.382684
vn 0.000000 -0.923879 0.382684
vn 0.000000 -0.923879 0.382684
vn -0.923879 0.000000 0.382684
vn -0.923879 0.000000 0.382684
vn -0.923879 0.000000 0.382684
vn -0.923879 0.000000 0.382684
vn -0.382684 0.000000 0.923879
vn -0.382684 0.000000 0.923879
vn -0.382684 0.000000 0.923879
vn -0.382684 0.000000 0.923879
vn 0.923879 -0.382684 0.000000
vn 0.923879 -0.382684 0.000000
vn 0.923879 -0.382684 0.000000
vn 0.923879 -0.382684 0.000000
vn 0.382684 -0.923879 0.000000
vn 0.382684 -0.923879 0.000000
vn 0.382684 -0.923879 0.000000
vn 0.382684 -0.923879 0.000000
vn 0.382684 0.000000 0.923879
vn 0.382684 0.000000 0.923879
vn 0.382684 0.000000 0.923879
vn 0.382684 0.000000 0.923879
vn 0.923879 0.000000 0.382684
vn 0.923879 0.000000 0.382684
vn 0.923879 0.000000 0.382684
vn 0.923879 0.000000 0.382684
vn -0.923879 0.382684 0.000000
vn -0.923879 0.382684 0.000000
vn -0.923879 0.382684 0.000000
vn -0.923879 0.382684 0.000000
vn -0.382684 0.923879 0.000000
vn -0.382684 0.923879 0.000000
vn -0.382684 0.923879 0.000000
vn -0.382684 0.923879 0.000000
vn 0.000000 0.923879 0.382684
vn 0.000000 0.923879 0.382684
vn 0.000000 0.923879 0.382684
vn 0.000000 0.923879 0.382684
vn 0.000000 0.382684 0.923879
vn 0.000000 0.382684 0.923879
vn 0.000000 0.382684 0.923879
vn 0.000000 0.382684 0.923879
vn 0.382684 0.923879 0.000000
vn 0.382684 0.923879 0.000000
vn 0.382684 0.923879 0.000000
vn 0.382684 0.923879 0.000000
vn 0.923879 0.382684 0.000000
vn 0.923879 0.382684 0.000000
vn 0.923879 0.382684 0.000000
vn 0.923879 0.382684 0.000000
vn -0.923879 0.000000 -0.382684
vn -0.923879 0.000000 -0.382684
vn -0.923879 0.000000 -0.382684
vn -0.923879 0.000000 -0.382684
vn -0.382684 0.000000 -0.923879
vn -0.382684 0.000000 -0.923879
vn -0.382684 0.000000 -0.923879
vn -0.382684 0.000000 -0.923879
vn 0.000000 0.382684 -0.923879
vn 0.000000 0.382684 -0.923879
vn 0.000000 0.382684 -0.923879
vn 0.000000 0.382684 -0.923879
vn 0.000000 0.923879 -0.382684
vn 0.000000 0.923879 -0.382684
vn 0.000000 0.923879 -0.382684
vn 0.000000 0.923879 -0.382684
vn 0.382684 0.000000 -0.923879
vn 0.382684 0.000000 -0.923879
vn 0.382684 0.000000 -0.923879
vn 0.382684 0.000000 -0.923879
vn 0.923879 0.000000 -0.382684
vn 0.923879 0.000000 -0.382684
vn 0.923879 0.000000 -0.382684
vn 0.923879 0.000000 -0.382684
vn 0.000000 -0.923879 -0.382684
vn 0.000000 -0.923879 -0.382684
vn 0.000000 -0.923879 -0.382684
vn 0.000000 -0.923879 -0.382684
vn 0.000000 -0.382684 -0.923879
vn 0.000000 -0.382684 -0.923879
vn 0.000000 -0.382684 -0.923879
vn 0.000000 -0.382684 -0.923879
vn 0.000000 0.000000 1.000000
vn 0.000000 0.000000 1.000000
vn 0.000000 0.000000 1.000000
vn 0.000000 0.000000 1.000000
vn 0.000000 1.000000 0.000000
vn 0.000000 1.000000 0.000000
vn 0.000000 1.000000 0.000000
vn 0.000000 1.000000 0.000000
vn 0.000000 0.000000 -1.000000
vn 0.000000 0.000000 -1.000000
vn 0.000000 0.000000 -1.000000
vn 0.000000 0.000000 -1.000000
vn 0.000000 -1.000000 0.000000
vn 0.000000 -1.000000 0.000000
vn 0.000000 -1.000000 0.000000
vn 0.000000 -1.000000 0.000000
vn 1.000000 0.000000 0.000000
vn 1.000000 0.000000 0.000000
vn 1.000000 0.000000 0.000000
vn 1.000000 0.000000 0.000000
vn -1.000000 0.000000 0.000000
vn -1.000000 0.000000 0.000000
vn -1.000000 0.000000 0.000000
vn -1.000000 0.000000 0.000000
vn -0.887919 -0.325269 0.325269
vn -0.887919 -0.325269 0.325269
vn -0.887919 -0.325269 0.325269
vn -0.887919 -0.325269 0.325269
vn -0.325269 -0.887919 0.325269
vn -0.325269 -0.887919 0.325269
vn -0.325269 -0.887919 0.325269
vn -0.325269 -0.887919 0.325269
vn -0.325269 -0.325269 0.887919
vn -0.325269 -0.325269 0.887919
vn -0.325269 -0.325269 0.887919
vn -0.325269 -0.325269 0.887919
vn 0.325269 -0.887919 0.325269
vn 0.325269 -0.887919 0.325269
vn 0.325269 -0.887919 0.325269
vn 0.325269 -0.887919 0.325269
vn 0.887919 -0.325269 0.325269
vn 0.887919 -0.325269 0.325269
vn 0.887919 -0.325269 0.325269
vn 0.887919 -0.325269 0.325269
vn 0.325269 -0.325269 0.887919
vn 0.325269 -0.325269 0.887919
vn 0.325269 -0.325269 0.887919
vn 0.325269 -0.325269 0.887919
vn -0.325269 0.887919 0.325269
vn -0.325269 0.887919 0.325269
vn -0.325269 0.887919 0.325269
vn -0.325269 0.887919 0.325269
vn -0.887919 0.325269 0.325269
vn -0.887919 0.325269 0.325269
vn -0.887919 0.325269 0.325269
vn -0.887919 0.325269 0.325269
vn -0.325269 0.325269 0.887919
vn -0.325269 0.325269 0.887919
vn -0.325269 0.325269 0.887919
vn -0.325269 0.325269 0.887919
vn 0.887919 0.325269 0.325269
vn 0.887919 0.325269 0.325269
vn 0.887919 0.325269 0.325269
vn 0.887919 0.325269 0.325269
vn 0.325269 0.887919 0.325269
vn 0.325269 0.887919 0.325269
vn 0.325269 0.887919 0.325269
vn 0.325269 0.887919 0.325269
vn 0.325269 0.325269 0.887919
vn 0.325269 0.325269 0.887919
vn 0.325269 0.325269 0.887919
vn 0.325269 0.325269 0.887919
vn -0.325269 0.325269 -0.887919
vn -0.325269 0.325269 -0.887919
vn -0.325269 0.325269 -0.887919
vn -0.325269 0.325269 -0.887919
vn -0.887919 0.325269 -0.325269
vn -0.887919 0.325269 -0.325269
vn -0.887919 0.325269 -0.325269
vn -0.887919 0.325269 -0.325269
vn -0.325269 0.887919 -0.325269
vn -0.325269 0.887919 -0.325269
vn -0.325269 0.887919 -0.325269
vn -0.325269 0.887919 -0.325269
vn 0.887919 0.325269 -0.325269
vn 0.887919 0.325269 -0.325269
vn 0.887919 0.325269 -0.325269
vn 0.887919 0.325269 -0.325269
vn 0.325269 0.325269 -0.887919
vn 0.325269 0.325269 -0.887919
vn 0.325269 0.325269 -0.887919
vn 0.325269 0.325269 -0.887919
vn 0.325269 0.887919 -0.325269
vn 0.325269 0.887919 -0.325269
vn 0.325269 0.887919 -0.325269
vn 0.325269 0.887919 -0.325269
vn -0.325269 -0.887919 -0.325269
vn -0.325269 -0.887919 -0.325269
vn -0.325269 -0.887919 -0.325269
vn -0.325269 -0.887919 -0.325269
vn -0.887919 -0.325269 -0.325269
vn -0.887919 -0.325269 -0.325269
vn -0.887919 -0.325269 -0.325269
vn -0.887919 -0.325269 -0.325269
vn -0.325269 -0.325269 -0.887919
vn -0.325269 -0.325269 -0.887919
vn -0.325269 -0.325269 -0.887919
vn -0.325269 -0.325269 -0.887919
vn 0.887919 -0.325269 -0.325269
vn 0.887919 -0.325269 -0.325269
vn 0.887919 -0.325269 -0.325269
vn 0.887919 -0.325269 -0.325269
vn 0.325269 -0.887919 -0.325269
vn 0.325269 -0.887919 -0.325269
vn 0.325269 -0.887919 -0.325269
vn 0.325269 -0.887919 -0.325269
vn 0.325269 -0.325269 -0.887919
vn 0.325269 -0.325269 -0.887919
vn 0.325269 -0.325269 -0.887919
vn 0.325269 -0.325269 -0.887919
s off
g DiceBase2:pCube1
usemtl initialShadingGroup
f 2/1/1 1/2/2 37/3/3 42/4/4
f 1/5/5 6/6/6 38/7/7 37/8/8
f 4/9/9 3/10/10 11/11/11 10/12/12
f 3/13/13 2/1/14 12/14/15 11/15/16
f 6/6/17 5/16/18 15/89/19 14/18/20
f 5/96/21 4/9/22 16/19/23 15/17/24
f 8/20/25 7/21/26 43/22/27 48/23/28
f 7/24/29 12/14/30 44/25/31 43/26/32
f 10/12/33 9/27/34 23/88/35 22/29/36
f 9/93/37 8/20/38 24/30/39 23/28/40
f 14/18/41 13/31/42 27/32/43 26/33/44
f 13/34/45 18/35/46 28/36/47 27/37/48
f 18/35/49 17/38/50 21/85/51 20/40/52
f 17/92/53 16/19/54 22/29/55 21/39/56
f 20/40/57 19/41/58 35/42/59 34/43/60
f 19/44/61 24/30/62 36/45/63 35/46/64
f 26/33/65 25/47/66 39/48/67 38/7/68
f 25/49/69 30/50/70 40/51/71 39/52/72
f 30/50/73 29/53/74 33/81/75 32/55/76
f 29/84/77 28/36/78 34/43/79 33/54/80
f 32/55/81 31/56/82 47/57/83 46/58/84
f 31/59/85 36/45/86 48/23/87 47/60/88
f 42/4/89 41/61/90 45/77/91 44/25/92
f 41/80/93 40/51/94 46/58/95 45/62/96
f 4/9/97 10/12/98 22/29/99 16/19/100
f 18/35/101 20/40/102 34/43/103 28/36/104
f 30/50/105 32/55/106 46/58/107 40/51/108
f 42/4/109 44/25/110 12/14/111 2/1/112
f 8/20/113 48/23/114 36/45/115 24/30/116
f 38/7/117 6/6/118 14/18/119 26/33/120
f 5/16/121 6/6/122 1/5/123 49/63/124
f 1/2/125 2/1/126 3/13/127 49/64/128
f 3/10/129 4/9/130 5/96/131 49/95/132
f 11/15/133 12/14/134 7/24/135 50/65/136
f 7/21/137 8/20/138 9/93/139 50/66/140
f 9/27/141 10/12/142 11/11/143 50/94/144
f 17/38/145 18/35/146 13/34/147 51/90/148
f 13/31/149 14/18/150 15/89/151 51/67/152
f 15/17/153 16/19/154 17/92/155 51/91/156
f 23/28/157 24/30/158 19/44/159 52/86/160
f 19/41/161 20/40/162 21/85/163 52/68/164
f 21/39/165 22/29/166 23/88/167 52/87/168
f 29/53/169 30/50/170 25/49/171 53/69/172
f 25/47/173 26/33/174 27/32/175 53/70/176
f 27/37/177 28/36/178 29/84/179 53/83/180
f 35/46/181 36/45/182 31/59/183 54/71/184
f 31/56/185 32/55/186 33/81/187 54/72/188
f 33/54/189 34/43/190 35/42/191 54/82/192
f 41/61/193 42/4/194 37/3/195 55/73/196
f 37/8/197 38/7/198 39/48/199 55/74/200
f 39/52/201 40/51/202 41/80/203 55/79/204
f 47/60/205 48/23/206 43/22/207 56/75/208
f 43/26/209 44/25/210 45/77/211 56/76/212
f 45/62/213 46/58/214 47/57/215 56/78/216
