# This file uses centimeters as units for non-parametric coordinates.

mtllib BombDice.mtl
v -3.044781 -3.044781 2.823009
v -2.823009 -3.136642 2.823009
v -2.823009 -3.044781 3.044781
v -2.823009 -2.823009 3.136642
v -3.044781 -2.823009 3.044781
v -3.136642 -2.823009 2.823009
v 3.044781 -3.044781 2.823009
v 3.136642 -2.823009 2.823009
v 3.044781 -2.823009 3.044781
v 2.823009 -2.823009 3.136642
v 2.823009 -3.044781 3.044781
v 2.823009 -3.136642 2.823009
v -3.044781 3.044781 2.823009
v -3.136642 2.823009 2.823009
v -3.044781 2.823009 3.044781
v -2.823009 2.823009 3.136642
v -2.823009 3.044781 3.044781
v -2.823009 3.136642 2.823009
v 3.044781 3.044781 2.823009
v 2.823009 3.136642 2.823009
v 2.823009 3.044781 3.044781
v 2.823009 2.823009 3.136642
v 3.044781 2.823009 3.044781
v 3.136642 2.823009 2.823009
v -3.044781 2.823009 -3.044781
v -3.136642 2.823009 -2.823009
v -3.044781 3.044781 -2.823009
v -2.823009 3.136642 -2.823009
v -2.823009 3.044781 -3.044781
v -2.823009 2.823009 -3.136642
v 3.044781 2.823009 -3.044781
v 2.823009 2.823009 -3.136642
v 2.823009 3.044781 -3.044781
v 2.823009 3.136642 -2.823009
v 3.044781 3.044781 -2.823009
v 3.136642 2.823009 -2.823009
v -3.044781 -3.044781 -2.823009
v -3.136642 -2.823009 -2.823009
v -3.044781 -2.823009 -3.044781
v -2.823009 -2.823009 -3.136642
v -2.823009 -3.044781 -3.044781
v -2.823009 -3.136642 -2.823009
v 3.044781 -3.044781 -2.823009
v 2.823009 -3.136642 -2.823009
v 2.823009 -3.044781 -3.044781
v 2.823009 -2.823009 -3.136642
v 3.044781 -2.823009 -3.044781
v 3.136642 -2.823009 -2.823009
v -3.004022 -3.004022 3.004022
v 3.004022 -3.004022 3.004022
v -3.004022 3.004022 3.004022
v 3.004022 3.004022 3.004022
v -3.004022 3.004022 -3.004022
v 3.004022 3.004022 -3.004022
v -3.004022 -3.004022 -3.004022
v 3.004022 -3.004022 -3.004022
v 3.044781 3.044781 -0.000006
v 2.823009 3.136642 -0.000006
v -2.823009 3.136642 -0.000006
v -3.044781 3.044781 -0.000006
v -3.136642 2.823009 -0.000006
v -3.136642 -2.823009 -0.000006
v -3.044781 -3.044781 -0.000006
v -2.823009 -3.136642 -0.000006
v 2.823009 -3.136642 -0.000006
v 3.044781 -3.044781 -0.000006
v 3.136642 -2.823009 -0.000006
v 3.136642 2.823009 -0.000006
v 0.001917 3.044781 3.044781
v 0.001917 3.136642 2.823009
v 0.001917 3.136642 -2.823009
v 0.001917 3.044781 -3.044781
v 0.001917 2.823009 -3.136642
v 0.001917 -2.823009 -3.136642
v 0.001917 -3.044781 -3.044781
v 0.001917 -3.136642 -2.823009
v 0.001917 -3.136642 -0.000006
v 0.001917 -3.136642 2.823009
v 0.001917 -3.044781 3.044781
v 0.001917 -2.823009 3.136642
v 0.001917 2.823009 3.136642
v 0.003286 3.136642 0.461856
v -0.324073 3.136642 0.328453
v -0.461219 3.136642 0.002645
v -0.002008 3.136642 -0.461860
v -0.327816 3.136642 -0.324714
v 0.329094 3.136642 0.324710
v 0.462497 3.136642 -0.002649
v 0.325351 3.136642 -0.328457
v 0.003286 2.999919 0.461856
v -0.324073 2.999919 0.328453
v 0.001963 2.999919 -0.000006
v -0.461219 2.999919 0.002645
v -0.002008 2.999919 -0.461860
v -0.327816 2.999919 -0.324714
v 0.329094 2.999919 0.324710
v 0.462497 2.999919 -0.002649
v 0.325351 2.999919 -0.328457
vt 0.387499 0.987501
vt 0.375000 0.992119
vt 0.375000 0.875000
vt 0.387499 0.875000
vt 0.367119 -0.000000
vt 0.362501 0.012499
vt 0.250000 0.012499
vt 0.250000 -0.000000
vt 0.387499 0.012499
vt 0.382881 -0.000000
vt 0.500080 -0.000000
vt 0.500076 0.012499
vt 0.382881 1.000000
vt 0.500076 0.987501
vt 0.500080 1.000000
vt 0.375000 0.012307
vt 0.375000 0.237693
vt 0.362501 0.237501
vt 0.387499 0.237501
vt 0.637499 0.012499
vt 0.632881 -0.000000
vt 0.750000 -0.000000
vt 0.750000 0.012499
vt 0.625000 0.992119
vt 0.612501 0.987501
vt 0.612501 0.875000
vt 0.625000 0.875000
vt 0.612501 0.012499
vt 0.625000 0.012307
vt 0.625000 0.237693
vt 0.612501 0.237501
vt 0.637499 0.237501
vt 0.367119 0.250000
vt 0.250000 0.250000
vt 0.250000 0.237501
vt 0.375000 0.257881
vt 0.387499 0.262499
vt 0.387499 0.375000
vt 0.375000 0.375000
vt 0.387307 0.250000
vt 0.500077 0.250000
vt 0.500076 0.262499
vt 0.500076 0.237501
vt 0.612501 0.262499
vt 0.625000 0.257881
vt 0.625000 0.375000
vt 0.612501 0.375000
vt 0.632881 0.250000
vt 0.750000 0.237501
vt 0.750000 0.250000
vt 0.137499 0.237501
vt 0.125000 0.242119
vt 0.125000 0.007881
vt 0.137499 0.012499
vt 0.375000 0.507881
vt 0.387499 0.512499
vt 0.387499 0.737501
vt 0.375000 0.742119
vt 0.387307 0.500000
vt 0.500077 0.500000
vt 0.500076 0.512499
vt 0.387499 0.487501
vt 0.500076 0.487501
vt 0.612501 0.512499
vt 0.625000 0.507881
vt 0.625000 0.742119
vt 0.612501 0.737501
vt 0.875000 0.242119
vt 0.862501 0.237501
vt 0.862501 0.012499
vt 0.875000 0.007881
vt 0.387499 0.762499
vt 0.387307 0.750000
vt 0.500077 0.750000
vt 0.500076 0.762499
vt 0.500076 0.737501
vt 0.489458 0.364400
vt 0.500096 0.360024
vt 0.500068 0.375000
vt 0.485050 0.374930
vt 0.500076 0.875000
vt 0.375000 0.000000
vt 0.375000 1.000000
vt 0.617119 1.000000
vt 0.625000 1.000000
vt 0.625000 0.000000
vt 0.617119 -0.000000
vt 0.375000 0.250000
vt 0.625000 0.250000
vt 0.612693 0.250000
vt 0.375000 0.500000
vt 0.132881 0.250000
vt 0.125000 0.250000
vt 0.375000 0.492119
vt 0.867119 0.250000
vt 0.875000 0.250000
vt 0.612693 0.500000
vt 0.625000 0.500000
vt 0.612501 0.487501
vt 0.625000 0.492119
vt 0.375000 0.757881
vt 0.375000 0.750000
vt 0.132881 -0.000000
vt 0.125000 0.000000
vt 0.867119 -0.000000
vt 0.875000 0.000000
vt 0.625000 0.757881
vt 0.612501 0.762499
vt 0.612693 0.750000
vt 0.625000 0.750000
vt 0.499956 0.389976
vt 0.489425 0.385567
vt 0.510626 0.364433
vt 0.515001 0.375070
vt 0.510593 0.385600
vt 0.500021 0.355735
vt 0.486330 0.361473
vt 0.480761 0.375004
vt 0.486499 0.388695
vt 0.500029 0.394265
vt 0.513552 0.361305
vt 0.519290 0.374996
vt 0.513720 0.388527
vn -0.382684 -0.923880 0.000000
vn -0.382684 -0.923880 0.000000
vn -0.382684 -0.923880 0.000000
vn -0.382684 -0.923880 0.000000
vn -0.923879 -0.382684 0.000000
vn -0.923879 -0.382684 0.000000
vn -0.923879 -0.382684 0.000000
vn -0.923879 -0.382684 0.000000
vn 0.000000 -0.382684 0.923880
vn 0.000000 -0.382684 0.923880
vn 0.000000 -0.382684 0.923880
vn 0.000000 -0.382684 0.923880
vn 0.000000 -0.923880 0.382684
vn 0.000000 -0.923880 0.382684
vn 0.000000 -0.923879 0.382684
vn 0.000000 -0.923879 0.382684
vn -0.923879 0.000000 0.382684
vn -0.923879 0.000000 0.382684
vn -0.923879 0.000000 0.382684
vn -0.923879 0.000000 0.382684
vn -0.382684 0.000000 0.923879
vn -0.382684 0.000000 0.923879
vn -0.382684 0.000000 0.923879
vn -0.382684 0.000000 0.923879
vn 0.923879 -0.382684 0.000000
vn 0.923879 -0.382684 0.000000
vn 0.923879 -0.382684 0.000000
vn 0.923879 -0.382684 0.000000
vn 0.382684 -0.923880 0.000000
vn 0.382684 -0.923880 0.000000
vn 0.382684 -0.923880 0.000000
vn 0.382684 -0.923880 0.000000
vn 0.382684 0.000000 0.923879
vn 0.382684 0.000000 0.923879
vn 0.382684 0.000000 0.923879
vn 0.382684 0.000000 0.923879
vn 0.923879 0.000000 0.382684
vn 0.923879 0.000000 0.382684
vn 0.923879 0.000000 0.382684
vn 0.923879 0.000000 0.382684
vn -0.923879 0.382684 0.000000
vn -0.923879 0.382684 0.000000
vn -0.923879 0.382684 0.000000
vn -0.923879 0.382684 0.000000
vn -0.382684 0.923880 0.000000
vn -0.050097 0.997486 0.050130
vn -0.057073 0.998370 -0.000000
vn -0.382684 0.923880 0.000000
vn 0.000000 0.923880 0.382684
vn 0.000000 0.923879 0.382684
vn 0.000000 0.998369 0.057086
vn 0.000000 0.382684 0.923880
vn 0.000000 0.382684 0.923880
vn 0.000000 0.382684 0.923880
vn 0.000000 0.382684 0.923880
vn 0.050137 0.997485 0.050103
vn 0.382684 0.923880 0.000000
vn 0.382684 0.923880 0.000000
vn 0.057098 0.998369 0.000000
vn 0.923879 0.382684 0.000000
vn 0.923879 0.382684 0.000000
vn 0.923879 0.382684 0.000000
vn 0.923879 0.382684 0.000000
vn -0.923879 0.000000 -0.382684
vn -0.923879 0.000000 -0.382684
vn -0.923879 0.000000 -0.382684
vn -0.923879 0.000000 -0.382684
vn -0.382684 0.000000 -0.923879
vn -0.382684 0.000000 -0.923879
vn -0.382684 0.000000 -0.923879
vn -0.382684 0.000000 -0.923879
vn 0.000000 0.382684 -0.923880
vn 0.000000 0.382684 -0.923880
vn 0.000000 0.382684 -0.923880
vn 0.000000 0.382684 -0.923880
vn 0.000000 0.923880 -0.382684
vn -0.050097 0.997486 -0.050131
vn -0.000000 0.998369 -0.057086
vn 0.000000 0.923879 -0.382684
vn 0.382684 0.000000 -0.923879
vn 0.382684 0.000000 -0.923879
vn 0.382684 0.000000 -0.923879
vn 0.382684 0.000000 -0.923879
vn 0.923879 0.000000 -0.382684
vn 0.923879 0.000000 -0.382684
vn 0.923879 0.000000 -0.382684
vn 0.923879 0.000000 -0.382684
vn 0.000000 -0.923880 -0.382684
vn 0.000000 -0.923880 -0.382684
vn 0.000000 -0.923879 -0.382684
vn 0.000000 -0.923879 -0.382684
vn 0.000000 -0.382684 -0.923880
vn 0.000000 -0.382684 -0.923880
vn 0.000000 -0.382684 -0.923880
vn 0.000000 -0.382684 -0.923880
vn 0.000000 0.000000 1.000000
vn 0.000000 0.000000 1.000000
vn 0.000000 0.000000 1.000000
vn 0.000000 0.000000 1.000000
vn 0.000000 1.000000 -0.000000
vn 0.000000 1.000000 0.000000
vn 0.000000 1.000000 0.000000
vn 0.000000 1.000000 -0.000000
vn 0.000000 0.000000 -1.000000
vn 0.000000 0.000000 -1.000000
vn 0.000000 0.000000 -1.000000
vn 0.000000 0.000000 -1.000000
vn 0.000000 -1.000000 0.000000
vn 0.000000 -1.000000 0.000000
vn 0.000000 -1.000000 0.000000
vn 0.000000 -1.000000 0.000000
vn 1.000000 0.000000 0.000000
vn 1.000000 0.000000 0.000000
vn 1.000000 0.000000 0.000000
vn 1.000000 0.000000 0.000000
vn -1.000000 0.000000 0.000000
vn -1.000000 0.000000 0.000000
vn -1.000000 0.000000 0.000000
vn -1.000000 0.000000 0.000000
vn -0.887918 -0.325271 0.325269
vn -0.887918 -0.325271 0.325269
vn -0.887918 -0.325271 0.325269
vn -0.887918 -0.325271 0.325269
vn -0.325269 -0.887918 0.325271
vn -0.325269 -0.887918 0.325271
vn -0.325269 -0.887918 0.325271
vn -0.325269 -0.887918 0.325271
vn -0.325271 -0.325269 0.887918
vn -0.325271 -0.325269 0.887918
vn -0.325271 -0.325269 0.887918
vn -0.325271 -0.325269 0.887918
vn 0.325269 -0.887918 0.325271
vn 0.325269 -0.887918 0.325271
vn 0.325269 -0.887918 0.325271
vn 0.325269 -0.887918 0.325271
vn 0.887918 -0.325271 0.325269
vn 0.887918 -0.325271 0.325269
vn 0.887918 -0.325271 0.325269
vn 0.887918 -0.325271 0.325269
vn 0.325271 -0.325269 0.887918
vn 0.325271 -0.325269 0.887918
vn 0.325271 -0.325269 0.887918
vn 0.325271 -0.325269 0.887918
vn -0.325269 0.887918 0.325271
vn -0.325269 0.887918 0.325271
vn -0.325269 0.887918 0.325271
vn -0.325269 0.887918 0.325271
vn -0.887918 0.325271 0.325269
vn -0.887918 0.325271 0.325269
vn -0.887918 0.325271 0.325269
vn -0.887918 0.325271 0.325269
vn -0.325271 0.325269 0.887918
vn -0.325271 0.325269 0.887918
vn -0.325271 0.325269 0.887918
vn -0.325271 0.325269 0.887918
vn 0.887918 0.325271 0.325269
vn 0.887918 0.325271 0.325269
vn 0.887918 0.325271 0.325269
vn 0.887918 0.325271 0.325269
vn 0.325269 0.887918 0.325271
vn 0.325269 0.887918 0.325271
vn 0.325269 0.887918 0.325271
vn 0.325269 0.887918 0.325271
vn 0.325271 0.325269 0.887918
vn 0.325271 0.325269 0.887918
vn 0.325271 0.325269 0.887918
vn 0.325271 0.325269 0.887918
vn -0.325271 0.325269 -0.887918
vn -0.325271 0.325269 -0.887918
vn -0.325271 0.325269 -0.887918
vn -0.325271 0.325269 -0.887918
vn -0.887918 0.325271 -0.325269
vn -0.887918 0.325271 -0.325269
vn -0.887918 0.325271 -0.325269
vn -0.887918 0.325271 -0.325269
vn -0.325269 0.887918 -0.325271
vn -0.325269 0.887918 -0.325271
vn -0.325269 0.887918 -0.325271
vn -0.325269 0.887918 -0.325271
vn 0.887918 0.325271 -0.325269
vn 0.887918 0.325271 -0.325269
vn 0.887918 0.325271 -0.325269
vn 0.887918 0.325271 -0.325269
vn 0.325271 0.325269 -0.887918
vn 0.325271 0.325269 -0.887918
vn 0.325271 0.325269 -0.887918
vn 0.325271 0.325269 -0.887918
vn 0.325269 0.887918 -0.325271
vn 0.325269 0.887918 -0.325271
vn 0.325269 0.887918 -0.325271
vn 0.325269 0.887918 -0.325271
vn -0.325269 -0.887918 -0.325271
vn -0.325269 -0.887918 -0.325271
vn -0.325269 -0.887918 -0.325271
vn -0.325269 -0.887918 -0.325271
vn -0.887918 -0.325271 -0.325269
vn -0.887918 -0.325271 -0.325269
vn -0.887918 -0.325271 -0.325269
vn -0.887918 -0.325271 -0.325269
vn -0.325271 -0.325269 -0.887918
vn -0.325271 -0.325269 -0.887918
vn -0.325271 -0.325269 -0.887918
vn -0.325271 -0.325269 -0.887918
vn 0.887918 -0.325271 -0.325269
vn 0.887918 -0.325271 -0.325269
vn 0.887918 -0.325271 -0.325269
vn 0.887918 -0.325271 -0.325269
vn 0.325269 -0.887918 -0.325271
vn 0.325269 -0.887918 -0.325271
vn 0.325269 -0.887918 -0.325271
vn 0.325269 -0.887918 -0.325271
vn 0.325271 -0.325269 -0.887918
vn 0.325271 -0.325269 -0.887918
vn 0.325271 -0.325269 -0.887918
vn 0.325271 -0.325269 -0.887918
vn 0.382684 0.923879 0.000000
vn 0.050137 0.997485 -0.050103
vn 0.000000 1.000000 -0.000000
vn 0.000000 1.000000 -0.000000
vn -0.382684 0.923879 0.000000
vn -0.923879 0.382684 0.000000
vn -0.923879 0.382684 0.000000
vn -1.000000 0.000000 0.000000
vn -1.000000 0.000000 0.000000
vn -0.923879 -0.382684 0.000000
vn -0.923879 -0.382684 0.000000
vn -0.382684 -0.923879 0.000000
vn -0.382684 -0.923879 0.000000
vn 0.000000 -1.000000 0.000000
vn 0.000000 -1.000000 0.000000
vn 0.382684 -0.923879 0.000000
vn 0.382684 -0.923879 0.000000
vn 0.923879 -0.382684 0.000000
vn 0.923879 -0.382684 0.000000
vn 1.000000 0.000000 0.000000
vn 1.000000 0.000000 0.000000
vn 0.923879 0.382684 0.000000
vn 0.923879 0.382684 0.000000
vn 0.000000 0.923879 0.382684
vn 0.000000 1.000000 0.000001
vn 0.000000 1.000000 0.000001
vn 0.000000 1.000000 0.000000
vn 0.000000 0.923879 -0.382684
vn 0.000000 0.382684 -0.923880
vn 0.000000 0.382684 -0.923880
vn 0.000000 0.000000 -1.000000
vn 0.000000 0.000000 -1.000000
vn 0.000000 -0.382684 -0.923880
vn 0.000000 -0.382684 -0.923880
vn 0.000000 -0.923879 -0.382684
vn 0.000000 -0.923879 -0.382684
vn 0.000000 -1.000000 0.000000
vn 0.000000 -1.000000 0.000000
vn 0.000000 -1.000000 0.000000
vn 0.000000 -0.923879 0.382684
vn 0.000000 -0.923879 0.382684
vn 0.000000 -0.382684 0.923880
vn 0.000000 -0.382684 0.923880
vn 0.000000 0.000000 1.000000
vn 0.000000 0.000000 1.000000
vn 0.000000 0.382684 0.923880
vn 0.000000 0.382684 0.923880
vn 0.000000 1.000000 0.000000
vn -0.000000 1.000000 -0.000000
vn -0.000000 1.000000 -0.000000
vn -0.000000 1.000000 -0.000000
vn -0.000000 1.000000 -0.000000
vn 0.000000 1.000000 0.000000
vn 0.000000 1.000000 0.000000
vn 0.000000 1.000000 -0.000000
vn 0.377381 0.000000 -0.926058
vn 0.377381 0.000000 -0.926058
vn 0.377381 0.000000 -0.926058
vn 0.377381 0.000000 -0.926058
vn 0.921672 0.000000 -0.387971
vn 0.921672 0.000000 -0.387971
vn 0.921672 0.000000 -0.387971
vn 0.921672 0.000000 -0.387971
vn 0.387972 0.000000 0.921671
vn 0.387972 0.000000 0.921671
vn 0.387972 0.000000 0.921671
vn 0.387972 0.000000 0.921671
vn 0.926058 0.000000 0.377382
vn 0.926058 0.000000 0.377382
vn 0.926058 0.000000 0.377382
vn 0.926058 0.000000 0.377382
vn -0.387971 0.000000 -0.921672
vn -0.387971 0.000000 -0.921672
vn -0.387971 0.000000 -0.921672
vn -0.387971 0.000000 -0.921672
vn -0.926058 0.000000 -0.377382
vn -0.926058 0.000000 -0.377382
vn -0.926058 0.000000 -0.377382
vn -0.926058 0.000000 -0.377382
vn -0.921671 0.000000 0.387972
vn -0.921671 0.000000 0.387972
vn -0.921671 0.000000 0.387972
vn -0.921671 0.000000 0.387972
vn -0.377382 0.000000 0.926058
vn -0.377382 0.000000 0.926058
vn -0.377382 0.000000 0.926058
vn -0.377382 0.000000 0.926058
s 1
g initialShadingGroup HandFixedPivot:HandFixedPivot:polySurface4
f 2/1/1 1/2/2 63/3/3 64/4/4
s 2
f 1/5/5 6/6/6 62/7/7 63/8/8
s 3
f 4/9/9 3/10/10 79/11/11 80/12/12
s 4
f 3/13/13 2/1/14 78/14/15 79/15/16
s off
f 6/6/17 5/16/18 15/17/19 14/18/20
f 5/16/21 4/9/22 16/19/23 15/17/24
s 5
f 8/20/25 7/21/26 66/22/27 67/23/28
s 6
f 7/24/29 12/25/30 65/26/31 66/27/32
s off
f 10/28/33 9/29/34 23/30/35 22/31/36
f 9/29/37 8/20/38 24/32/39 23/30/40
s 7
f 14/18/41 13/33/42 60/34/43 61/35/44
s 8
f 13/36/45 18/37/46 59/38/47 60/39/48
f 18/37/46 17/40/49 69/41/50 70/42/51
s 10
f 17/40/52 16/19/53 81/43/54 69/41/55
s 8
f 20/44/56 19/45/57 57/46/58 58/47/59
s 12
f 19/48/60 24/32/61 68/49/62 57/50/63
s off
f 26/51/64 25/52/65 39/53/66 38/54/67
f 25/55/68 30/56/69 40/57/70 39/58/71
s 13
f 30/56/72 29/59/73 72/60/74 73/61/75
s 8
f 29/59/76 28/62/77 71/63/78 72/60/79
s off
f 32/64/80 31/65/81 47/66/82 46/67/83
f 31/68/84 36/69/85 48/70/86 47/71/87
s 15
f 42/72/88 41/73/89 75/74/90 76/75/91
s 16
f 41/73/92 40/57/93 74/76/94 75/74/95
s 17
f 4/9/96 80/12/97 81/43/98 16/19/99
s 18
f 91/77/100 90/78/101 92/79/102 93/80/103
s 19
f 30/56/104 73/61/105 74/76/106 40/57/107
s 20
f 64/4/108 77/81/109 78/14/110 2/1/111
s 21
f 8/20/112 67/23/113 68/49/114 24/32/115
s 22
f 62/7/116 6/6/117 14/18/118 61/35/119
s off
f 5/16/120 6/6/121 1/5/122 49/82/123
f 1/2/124 2/1/125 3/13/126 49/83/127
f 3/10/128 4/9/129 5/16/130 49/82/131
f 11/84/132 12/25/133 7/24/134 50/85/135
f 7/21/136 8/20/137 9/29/138 50/86/139
f 9/29/140 10/28/141 11/87/142 50/86/143
f 17/40/144 18/37/145 13/36/146 51/88/147
f 13/33/148 14/18/149 15/17/150 51/88/151
f 15/17/152 16/19/153 17/40/154 51/88/155
f 23/30/156 24/32/157 19/48/158 52/89/159
f 19/45/160 20/44/161 21/90/162 52/89/163
f 21/90/164 22/31/165 23/30/166 52/89/167
f 29/59/168 30/56/169 25/55/170 53/91/171
f 25/52/172 26/51/173 27/92/174 53/93/175
f 27/94/176 28/62/177 29/59/178 53/91/179
f 35/95/180 36/69/181 31/68/182 54/96/183
f 31/65/184 32/64/185 33/97/186 54/98/187
f 33/97/188 34/99/189 35/100/190 54/98/191
f 41/73/192 42/72/193 37/101/194 55/102/195
f 37/103/196 38/54/197 39/53/198 55/104/199
f 39/58/200 40/57/201 41/73/202 55/102/203
f 47/71/204 48/70/205 43/105/206 56/106/207
f 43/107/208 44/108/209 45/109/210 56/110/211
f 45/109/212 46/67/213 47/66/214 56/110/215
s 8
f 58/47/59 57/46/58 35/100/216 34/99/217
s 18
f 93/80/103 92/79/102 94/111/218 95/112/219
s 8
f 60/39/48 59/38/47 28/62/77 27/94/220
s 7
f 61/35/44 60/34/43 27/92/221 26/51/222
s 22
f 38/54/223 62/7/116 61/35/119 26/51/224
s 2
f 63/8/8 62/7/7 38/54/225 37/103/226
s 1
f 64/4/4 63/3/3 37/101/227 42/72/228
s 20
f 42/72/229 76/75/230 77/81/109 64/4/108
s 6
f 66/27/32 65/26/31 44/108/231 43/107/232
s 5
f 67/23/28 66/22/27 43/105/233 48/70/234
s 21
f 68/49/114 67/23/113 48/70/235 36/69/236
s 12
f 57/50/63 68/49/62 36/69/237 35/95/238
s 8
f 70/42/51 69/41/50 21/90/239 20/44/56
s 18
f 92/79/102 90/78/101 96/113/240 97/114/241
f 94/111/218 92/79/102 97/114/241 98/115/242
s 8
f 72/60/79 71/63/78 34/99/217 33/97/243
s 13
f 73/61/75 72/60/74 33/97/244 32/64/245
s 19
f 74/76/106 73/61/105 32/64/246 46/67/247
s 16
f 75/74/95 74/76/94 46/67/248 45/109/249
s 15
f 76/75/91 75/74/90 45/109/250 44/108/251
s 20
f 77/81/109 76/75/230 44/108/252 65/26/253
f 78/14/110 77/81/109 65/26/253 12/25/254
s 4
f 79/15/16 78/14/15 12/25/255 11/84/256
s 3
f 80/12/12 79/11/11 11/87/257 10/28/258
s 17
f 81/43/98 80/12/97 10/28/259 22/31/260
s 10
f 69/41/55 81/43/54 22/31/261 21/90/262
s 8
f 18/37/46 70/42/51 82/116/263 83/117/264
f 59/38/47 18/37/46 83/117/264 84/118/265
f 71/63/78 28/62/77 86/119/266 85/120/267
f 28/62/77 59/38/47 84/118/265 86/119/266
f 70/42/51 20/44/56 87/121/268 82/116/263
f 20/44/56 58/47/59 88/122/269 87/121/268
f 58/47/59 34/99/217 89/123/270 88/122/269
f 34/99/217 71/63/78 85/120/267 89/123/270
s off
f 83/117/271 82/116/272 90/78/273 91/77/274
f 84/118/275 83/117/276 91/77/277 93/80/278
f 85/120/279 86/119/280 95/112/281 94/111/282
f 86/119/283 84/118/284 93/80/285 95/112/286
f 82/116/287 87/121/288 96/113/289 90/78/290
f 87/121/291 88/122/292 97/114/293 96/113/294
f 88/122/295 89/123/296 98/115/297 97/114/298
f 89/123/299 85/120/300 94/111/301 98/115/302
